<?xml version="1.0" encoding="utf-8"?>
<svg viewBox="37.6898 170.5381 411.2663 301.1784" xmlns="http://www.w3.org/2000/svg">
  <path style="fill:#1FB27B;" d="M3527.876,1847.303c-45.883-177.657-125.227-345.092-216.195-504.441&#10;&#9;&#9;&#9;&#9;c-99.338-174.014-213.068-339.811-339.644-495.142c-155.703,264.427-432.982,448.291-732.973,512.864&#10;&#9;&#9;&#9;&#9;c-81.783,17.604-161.388,26.747-239.065,28.47c-77.677-1.723-157.282-10.866-239.065-28.47&#10;&#9;&#9;&#9;&#9;c-299.991-64.573-577.269-248.438-732.973-512.864c-126.576,155.331-240.306,321.128-339.644,495.142&#10;&#9;&#9;&#9;&#9;c-90.969,159.349-170.313,326.783-216.196,504.441c-65.836,254.913-60.243,527.877,15.978,779.88&#10;&#9;&#9;&#9;&#9;c28.965,95.763,68.429,189.429,127.868,269.906c107.066,144.959,279.055,239.998,458.76,253.505&#10;&#9;&#9;&#9;&#9;c179.704,13.507,363.967-54.756,491.499-182.082c160.073-159.816,227.027-397.952,397.093-547.09&#10;&#9;&#9;&#9;&#9;c9.893-8.675,20.58-17.252,33.381-20.287c1.098-0.26,2.198-0.442,3.296-0.617c1.098,0.175,2.198,0.357,3.295,0.617&#10;&#9;&#9;&#9;&#9;c12.802,3.034,23.488,11.612,33.381,20.287c170.067,149.138,237.02,387.273,397.094,547.09&#10;&#9;&#9;&#9;&#9;c127.532,127.326,311.796,195.589,491.499,182.082c179.705-13.507,351.695-108.546,458.76-253.505&#10;&#9;&#9;&#9;&#9;c59.439-80.477,98.904-174.143,127.868-269.906C3588.119,2375.179,3593.712,2102.216,3527.876,1847.303z M1275.316,2571.871&#10;&#9;&#9;&#9;&#9;c-343.385,0-621.753-278.369-621.753-621.753c0-343.385,278.368-621.753,621.753-621.753&#10;&#9;&#9;&#9;&#9;c343.384,0,621.753,278.368,621.753,621.753C1897.069,2293.502,1618.7,2571.871,1275.316,2571.871z M2710.062,2571.871&#10;&#9;&#9;&#9;&#9;c-343.385,0-621.753-278.369-621.753-621.753c0-343.385,278.368-621.753,621.753-621.753s621.753,278.368,621.753,621.753&#10;&#9;&#9;&#9;&#9;C3331.815,2293.502,3053.447,2571.871,2710.062,2571.871z" transform="matrix(0.13068799674510956, 0, 0, 0.13068799674510956, -18.052749902795995, 59.75130933152593)"/>
  <path style="fill: rgb(79, 254, 79);" d="M2710.062,1328.365c-343.385,0-621.753,278.368-621.753,621.753&#10;&#9;&#9;&#9;&#9;c0,343.385,278.368,621.753,621.753,621.753s621.753-278.369,621.753-621.753&#10;&#9;&#9;&#9;&#9;C3331.815,1606.732,3053.447,1328.365,2710.062,1328.365z M2710.062,2280.893c-182.683,0-330.775-148.093-330.775-330.775&#10;&#9;&#9;&#9;&#9;c0-182.683,148.092-330.776,330.775-330.776c182.683,0,330.775,148.093,330.775,330.776&#10;&#9;&#9;&#9;&#9;C3040.837,2132.8,2892.745,2280.893,2710.062,2280.893z" transform="matrix(0.13068799674510956, 0, 0, 0.13068799674510956, -18.052749902795995, 59.75130933152593)"/>
  <path style="fill: rgb(79, 254, 79);" d="M1275.316,1328.365c-343.385,0-621.753,278.368-621.753,621.753&#10;&#9;&#9;&#9;&#9;c0,343.385,278.368,621.753,621.753,621.753c343.384,0,621.753-278.369,621.753-621.753&#10;&#9;&#9;&#9;&#9;C1897.069,1606.732,1618.7,1328.365,1275.316,1328.365z M1275.316,2280.893c-182.682,0-330.776-148.093-330.776-330.775&#10;&#9;&#9;&#9;&#9;c0-182.683,148.094-330.776,330.776-330.776s330.776,148.093,330.776,330.776&#10;&#9;&#9;&#9;&#9;C1606.092,2132.8,1457.998,2280.893,1275.316,2280.893z" transform="matrix(0.13068799674510956, 0, 0, 0.13068799674510956, -18.052749902795995, 59.75130933152593)"/>
  <path style="fill:#EF7A2B;" d="M2338.152,2300.398c-15.568-48.686-111.352-75.306-154.389-86.354&#10;&#9;&#9;&#9;&#9;c-59.823-15.358-122.177-19.749-183.763-19.422c-61.585-0.327-123.939,4.064-183.763,19.422&#10;&#9;&#9;&#9;&#9;c-43.036,11.048-138.822,37.668-154.389,86.354c-14.413,45.078,40.015,124.628,59.953,163.416&#10;&#9;&#9;&#9;&#9;c30.107,58.569,64.581,114.893,103.018,168.366c44.462,61.86,94.234,119.91,148.699,173.181v0.001&#10;&#9;&#9;&#9;&#9;c7.736,7.567,16.178,15.287,26.481,18.155c10.302-2.868,18.745-10.589,26.48-18.155v-0.001&#10;&#9;&#9;&#9;&#9;c54.465-53.271,104.237-111.321,148.7-173.181c38.437-53.474,72.911-109.797,103.018-168.366&#10;&#9;&#9;&#9;&#9;C2298.136,2425.025,2352.565,2345.476,2338.152,2300.398z" transform="matrix(0.13068799674510956, 0, 0, 0.13068799674510956, -18.052749902795995, 59.75130933152593)"/>
</svg>